<?xml version="1.0" standalone="no"?><!-- Generator: Gravit.io --><svg xmlns="http://www.w3.org/2000/svg" xmlns:xlink="http://www.w3.org/1999/xlink" style="isolation:isolate" viewBox="0 0 500 500" width="500" height="500"><defs><clipPath id="_clipPath_j05hsafdGVoEjowbGThoXghaqfJk7AIH"><rect width="500" height="500"/></clipPath></defs><g clip-path="url(#_clipPath_j05hsafdGVoEjowbGThoXghaqfJk7AIH)"><polygon points="472,299.578,439.188,376.823,380.824,436.941,304.793,471.811,221.361,476.724,141.797,451.016,76.846,398.161,35.281,325.295,22.715,242.261,40.845,160.272,87.222,90.4,155.584,42.084,236.697,21.848,319.606,32.425,393.115,72.387,447.296,136.336,474.83,215.637" fill="rgb(249,175,64)"/><polygon points="412.249,186.112,400.406,196.647,384.563,197.105,372.132,187.273,368.929,171.749,376.454,157.799,391.185,151.95,406.23,156.938,414.548,170.43" fill="rgb(98,13,13)"/><polygon points="412.249,186.112,400.406,196.647,384.563,197.105,372.132,187.273,368.929,171.749,376.454,157.799,391.185,151.95,406.23,156.938,414.548,170.43" fill="rgb(98,13,13)"/><polygon points="107.732,336.88,95.89,347.415,80.047,347.873,67.615,338.04,64.413,322.517,71.938,308.567,86.669,302.718,101.713,307.706,110.032,321.197" fill="rgb(98,13,13)"/><polygon points="215.157,359.457,203.315,369.993,187.472,370.451,175.04,360.618,171.838,345.095,179.363,331.145,194.094,325.295,209.139,330.283,217.457,343.775" fill="rgb(98,13,13)"/><polygon points="330.89,153.772,319.047,164.307,303.204,164.766,290.773,154.933,287.57,139.41,295.095,125.46,309.826,119.61,324.871,124.598,333.189,138.09" fill="rgb(98,13,13)"/><polygon points="253.042,418.466,241.2,429.001,225.357,429.46,212.925,419.627,209.723,404.104,217.247,390.154,231.979,384.304,247.023,389.292,255.342,402.784" fill="rgb(98,13,13)"/><polygon points="344.281,395.889,332.439,406.424,316.595,406.882,304.164,397.049,300.961,381.526,308.486,367.576,323.217,361.727,338.262,366.715,346.581,380.206" fill="rgb(98,13,13)"/><polygon points="260.777,308.576,248.935,319.111,233.091,319.57,220.66,309.737,217.457,294.214,224.982,280.264,239.713,274.414,254.758,279.402,263.077,292.894" fill="rgb(98,13,13)"/><polygon points="164.723,253.845,152.881,264.38,137.037,264.839,124.606,255.006,121.403,239.483,128.928,225.533,143.659,219.683,158.704,224.671,167.023,238.163" fill="rgb(98,13,13)"/><polygon points="164.723,147.921,152.881,158.456,137.037,158.914,124.606,149.081,121.403,133.558,128.928,119.608,143.659,113.759,158.704,118.747,167.023,132.238" fill="rgb(98,13,13)"/><polygon points="298.662,231.267,286.819,241.803,270.976,242.261,258.545,232.428,255.342,216.905,262.867,202.955,277.598,197.105,292.643,202.093,300.961,215.585" fill="rgb(98,13,13)"/><polygon points="298.662,231.267,286.819,241.803,270.976,242.261,258.545,232.428,255.342,216.905,262.867,202.955,277.598,197.105,292.643,202.093,300.961,215.585" fill="rgb(98,13,13)"/><polygon points="215.157,186.112,203.315,196.647,187.472,197.105,175.04,187.273,171.838,171.749,179.363,157.799,194.094,151.95,209.139,156.938,217.457,170.43" fill="rgb(98,13,13)"/><polygon points="84.923,225.542,73.081,236.077,57.237,236.535,44.806,226.702,41.603,211.179,49.128,197.229,63.859,191.379,78.904,196.368,87.222,209.859" fill="rgb(98,13,13)"/><polygon points="425.64,314.302,413.798,324.837,397.954,325.295,385.523,315.463,382.32,299.939,389.845,285.989,404.576,280.14,419.621,285.128,427.94,298.62" fill="rgb(98,13,13)"/><polygon points="260.777,114.343,248.935,124.878,233.091,125.336,220.66,115.503,217.457,99.98,224.982,86.03,239.713,80.18,254.758,85.169,263.077,98.66" fill="rgb(98,13,13)"/></g></svg>